<svg xmlns="http://www.w3.org/2000/svg" width="16" height="32" fill="none" viewBox="0 0 16 32">
  <path fill="currentcolor" fill-rule="evenodd" d="M0 15.5V3a3 3 0 0 1 3-3h10a3 3 0 0 1 3 3v12.5H0ZM12 8a1 1 0 0 0-1-1H9V5a1 1 0 0 0-2 0v2H5a1 1 0 0 0 0 2h2v2a1 1 0 1 0 2 0V9h2a1 1 0 0 0 1-1Z" clip-rule="evenodd"/>
  <path fill="currentcolor" fill-rule="evenodd" d="M16 29a3 3 0 0 1-3 3H3a3 3 0 0 1-3-3V16.5h16V29Zm-4-5a1 1 0 0 0-1-1H5a1 1 0 1 0 0 2h6a1 1 0 0 0 1-1Z" clip-rule="evenodd" opacity=".3"/>
</svg>
