<svg fill="none" height="32" viewBox="0 0 32 32" width="32" xmlns="http://www.w3.org/2000/svg"><path clip-rule="evenodd" d="m16 0c13.176 0 16 2.824 16 16s-2.824 16-16 16-16-2.824-16-16 2.824-16 16-16zm-5.5 20c-.82843 0-1.5.6716-1.5 1.5s.67157 1.5 1.5 1.5h11c.8284 0 1.5-.6716 1.5-1.5s-.6716-1.5-1.5-1.5zm5.5-12.9082c-.8283.00003-1.4998.67179-1.5 1.5v3.9082h-4c-.82843 0-1.5.6716-1.5 1.5s.67157 1.5 1.5 1.5h4v3h3v-3h4c.8284 0 1.5-.6716 1.5-1.5s-.6716-1.5-1.5-1.5h-4v-3.9082c-.0002-.82823-.6717-1.5-1.5-1.5z" fill="#000" fill-rule="evenodd"/></svg>